<svg width="11" height="6" viewBox="0 0 11 6" fill="none" xmlns="http://www.w3.org/2000/svg">
  <path d="M0.718751 0.249012C0.784419 0.248944 0.849453 0.261851 0.910117 0.286993C0.970782 0.312134 1.02588 0.349013 1.07225 0.395512L5.21875 4.54351L9.36525 0.395512C9.41137 0.347757 9.46655 0.309666 9.52755 0.283461C9.58855 0.257257 9.65416 0.243464 9.72055 0.242887C9.78694 0.24231 9.85278 0.254961 9.91423 0.280101C9.97568 0.305242 10.0315 0.342368 10.0784 0.389314C10.1254 0.436261 10.1625 0.492087 10.1877 0.553535C10.2128 0.614983 10.2255 0.680823 10.2249 0.747213C10.2243 0.813603 10.2105 0.879212 10.1843 0.940214C10.1581 1.00122 10.12 1.05639 10.0723 1.10251L5.57225 5.60451C5.47666 5.69474 5.35019 5.745 5.21875 5.745C5.08731 5.745 4.96084 5.69474 4.86525 5.60451L0.365251 1.10251C0.295346 1.03259 0.247743 0.943504 0.228459 0.846528C0.209176 0.749551 0.219077 0.649034 0.256912 0.557684C0.294747 0.466335 0.358817 0.388254 0.441022 0.333312C0.523227 0.278369 0.619876 0.249033 0.718751 0.249012Z" fill="#8E8E8E"/>
</svg>